<svg id="Lag_1" data-name="Lag 1" xmlns="http://www.w3.org/2000/svg" viewBox="0 0 451.78 89.63"><defs><style>.cls-1{fill:#1d1d1b;}.cls-2{fill:#f4be4d;}.cls-3{fill:#459bd5;}</style></defs><rect class="cls-1" width="194.18" height="61.31"/><path class="cls-2" d="M111.69,429.7H79.63v-8H91.68V399.63H79.63v-8h32.06v8h-12v22.08h12Z" transform="translate(-72.11 -375.72)"/><path class="cls-2" d="M160.74,429.7H115.31V391.64h37.48v-10h8Zm-8-8V399.63h-29.5v22.08Z" transform="translate(-72.11 -375.72)"/><path class="cls-2" d="M209.81,429.7H164.37V391.64h45.44v23l-37.88,0v7.07l37.88,0Zm-9.56-22.91-.11-6.82-28.32-.1.11,6.82Z" transform="translate(-72.11 -375.72)"/><path class="cls-2" d="M258.87,429.7H213.44V406.64H251.2v-7H213.44v-8h45.43Zm-7.67-8v-7.07H221.94v7.07Z" transform="translate(-72.11 -375.72)"/><rect class="cls-1" x="198.57" width="253.21" height="61.31"/><path class="cls-3" d="M323.56,430.41h-8V400.35h-29.5v30.06h-7.95V382.35h7.95v10h37.48Z" transform="translate(-72.11 -375.72)"/><path class="cls-3" d="M372.62,430.41H327.19V392.35h45.43Zm-7.91-8V400.35H335.15v22.07Z" transform="translate(-72.11 -375.72)"/><path class="cls-3" d="M418.31,430.41H376.25V392.35h8v30.07h26.25V392.35h7.84Z" transform="translate(-72.11 -375.72)"/><path class="cls-3" d="M467.37,430.41H421.94v-8h37.49v-7.07H421.94v-23h45.43v8H429.92v7h37.45Z" transform="translate(-72.11 -375.72)"/><path class="cls-3" d="M516.43,430.41H471V392.35h45.43v23h-37.5v7.07h37.5Zm-8-23v-7l-29.54-.09v7Z" transform="translate(-72.11 -375.72)"/><path class="cls-1" d="M75.22,460v5.38H72.7V450.85h5.55a5.63,5.63,0,0,1,3.86,1.27,4.26,4.26,0,0,1,1.43,3.35,4.13,4.13,0,0,1-1.4,3.32A5.88,5.88,0,0,1,78.22,460Zm0-2h3a3,3,0,0,0,2-.63,2.3,2.3,0,0,0,.71-1.83,2.48,2.48,0,0,0-.72-1.87,2.78,2.78,0,0,0-2-.73h-3.1Z" transform="translate(-72.11 -375.72)"/><path class="cls-1" d="M94.49,462H88.87l-1.17,3.38H85.08l5.48-14.51h2.26l5.49,14.51H95.68Zm-4.91-2h4.2l-2.1-6Z" transform="translate(-72.11 -375.72)"/><path class="cls-1" d="M107.61,459.78H104.8v5.58h-2.52V450.85h5.1a5.94,5.94,0,0,1,3.88,1.13,4,4,0,0,1,1.36,3.26,4.09,4.09,0,0,1-.7,2.44,4.56,4.56,0,0,1-2,1.51l3.26,6v.13h-2.7Zm-2.81-2h2.59a2.88,2.88,0,0,0,2-.65,2.26,2.26,0,0,0,.71-1.76,2.4,2.4,0,0,0-.66-1.8,2.87,2.87,0,0,0-2-.66H104.8Z" transform="translate(-72.11 -375.72)"/><path class="cls-1" d="M127.22,452.88H122.7v12.48h-2.5V452.88h-4.48v-2h11.5Z" transform="translate(-72.11 -375.72)"/><path class="cls-1" d="M154.19,458.28a8.88,8.88,0,0,1-.74,3.74,5.46,5.46,0,0,1-2.11,2.47,6.12,6.12,0,0,1-6.29,0,5.62,5.62,0,0,1-2.13-2.45,8.55,8.55,0,0,1-.77-3.68v-.81a8.69,8.69,0,0,1,.76-3.75,5.63,5.63,0,0,1,2.12-2.48,5.72,5.72,0,0,1,3.14-.87,5.8,5.8,0,0,1,3.14.86,5.49,5.49,0,0,1,2.12,2.45,8.79,8.79,0,0,1,.76,3.72Zm-2.52-.75a6.42,6.42,0,0,0-.91-3.7,3,3,0,0,0-2.59-1.28,2.94,2.94,0,0,0-2.55,1.28,6.12,6.12,0,0,0-.94,3.62v.83a6.23,6.23,0,0,0,.93,3.7,3.23,3.23,0,0,0,5.16,0,6.44,6.44,0,0,0,.9-3.73Z" transform="translate(-72.11 -375.72)"/><path class="cls-1" d="M166.29,459.21h-5.83v6.15h-2.52V450.85h9.21v2h-6.69v4.32h5.83Z" transform="translate(-72.11 -375.72)"/><path class="cls-1" d="M194.11,458.88h-6v4.46h7v2h-9.48V450.85h9.41v2h-6.89v4h6Z" transform="translate(-72.11 -375.72)"/><path class="cls-1" d="M205.33,459.78h-2.81v5.58H200V450.85h5.1A5.94,5.94,0,0,1,209,452a4,4,0,0,1,1.36,3.26,4.09,4.09,0,0,1-.7,2.44,4.56,4.56,0,0,1-2,1.51l3.26,6v.13h-2.7Zm-2.81-2h2.59a2.86,2.86,0,0,0,2-.65,2.23,2.23,0,0,0,.72-1.76,2.4,2.4,0,0,0-.66-1.8,2.87,2.87,0,0,0-2-.66h-2.66Z" transform="translate(-72.11 -375.72)"/><path class="cls-1" d="M226.78,465.36h-2.52v-6.44h-6.48v6.44h-2.52V450.85h2.52v6h6.48v-6h2.52Z" transform="translate(-72.11 -375.72)"/><path class="cls-1" d="M237,462.2l3.69-11.35h2.77l-5.22,14.51h-2.44l-5.2-14.51h2.76Z" transform="translate(-72.11 -375.72)"/><path class="cls-1" d="M255.42,458.88h-6v4.46h7v2h-9.48V450.85h9.41v2h-6.89v4h6Z" transform="translate(-72.11 -375.72)"/><path class="cls-1" d="M266.3,459.78h-2.81v5.58H261V450.85h5.1a5.93,5.93,0,0,1,3.87,1.13,4,4,0,0,1,1.37,3.26,4.16,4.16,0,0,1-.7,2.44,4.56,4.56,0,0,1-2,1.51l3.26,6v.13h-2.7Zm-2.81-2h2.59a2.87,2.87,0,0,0,2-.65,2.23,2.23,0,0,0,.72-1.76,2.4,2.4,0,0,0-.66-1.8,2.91,2.91,0,0,0-2-.66h-2.66Z" transform="translate(-72.11 -375.72)"/><path class="cls-1" d="M280.44,462.2l3.69-11.35h2.77l-5.22,14.51h-2.44L274,450.85h2.76Z" transform="translate(-72.11 -375.72)"/><path class="cls-1" d="M297.64,461.42A1.73,1.73,0,0,0,297,460a8,8,0,0,0-2.43-1.05,11.87,11.87,0,0,1-2.79-1.17,3.75,3.75,0,0,1-2-3.25,3.55,3.55,0,0,1,1.43-2.89,5.76,5.76,0,0,1,3.71-1.14,6.3,6.3,0,0,1,2.7.56,4.47,4.47,0,0,1,1.87,1.59,4.09,4.09,0,0,1,.67,2.29h-2.51a2.29,2.29,0,0,0-.71-1.78,2.94,2.94,0,0,0-2-.64A3.06,3.06,0,0,0,293,453a1.76,1.76,0,0,0-.69,1.48,1.6,1.6,0,0,0,.74,1.33,8.47,8.47,0,0,0,2.43,1,11.21,11.21,0,0,1,2.72,1.15,4.31,4.31,0,0,1,1.5,1.47,3.86,3.86,0,0,1,.48,1.95,3.43,3.43,0,0,1-1.39,2.88,6,6,0,0,1-3.77,1.08,7,7,0,0,1-2.89-.59,4.77,4.77,0,0,1-2.05-1.61,4,4,0,0,1-.74-2.39h2.52a2.37,2.37,0,0,0,.82,1.92,3.59,3.59,0,0,0,2.34.67,3.08,3.08,0,0,0,2-.53A1.72,1.72,0,0,0,297.64,461.42Z" transform="translate(-72.11 -375.72)"/><path class="cls-1" d="M313.51,462h-5.62l-1.17,3.38H304.1l5.48-14.51h2.26l5.49,14.51H314.7Zm-4.91-2h4.2l-2.1-6Z" transform="translate(-72.11 -375.72)"/><path class="cls-1" d="M325.56,459.09l-1.64,1.74v4.53H321.4V450.85h2.52v6.81l1.39-1.73,4.25-5.08h3l-5.39,6.43,5.7,8.08h-3Z" transform="translate(-72.11 -375.72)"/><path class="cls-1" d="M345.13,462h-5.62l-1.18,3.38h-2.62l5.48-14.51h2.26l5.49,14.51h-2.63Zm-4.92-2h4.21l-2.1-6Z" transform="translate(-72.11 -375.72)"/><path class="cls-1" d="M353.16,465.36V450.85h4.28a6.72,6.72,0,0,1,3.41.86,5.83,5.83,0,0,1,2.31,2.43,7.78,7.78,0,0,1,.82,3.61v.72a7.68,7.68,0,0,1-.83,3.63,5.78,5.78,0,0,1-2.34,2.41,7.06,7.06,0,0,1-3.48.85Zm2.52-12.48v10.46h1.64a3.76,3.76,0,0,0,3-1.24,5.4,5.4,0,0,0,1.09-3.56v-.8a5.57,5.57,0,0,0-1-3.61,3.64,3.64,0,0,0-3-1.25Z" transform="translate(-72.11 -375.72)"/><path class="cls-1" d="M377.23,458.88h-6v4.46h7v2h-9.48V450.85h9.41v2h-6.89v4h6Z" transform="translate(-72.11 -375.72)"/><path class="cls-1" d="M386.28,450.85,390.47,462l4.17-11.12h3.26v14.51h-2.51v-4.79l.25-6.39-4.29,11.18h-1.8l-4.27-11.17.25,6.38v4.79H383V450.85Z" transform="translate(-72.11 -375.72)"/><path class="cls-1" d="M406.27,465.36h-2.51V450.85h2.51Z" transform="translate(-72.11 -375.72)"/><path class="cls-1" d="M431.49,461.42a1.73,1.73,0,0,0-.67-1.47,8,8,0,0,0-2.43-1.05,11.87,11.87,0,0,1-2.79-1.17,3.73,3.73,0,0,1-2-3.25,3.55,3.55,0,0,1,1.43-2.89,5.76,5.76,0,0,1,3.71-1.14,6.3,6.3,0,0,1,2.7.56,4.39,4.39,0,0,1,1.86,1.59,4,4,0,0,1,.68,2.29h-2.51a2.29,2.29,0,0,0-.71-1.78,2.94,2.94,0,0,0-2-.64,3.11,3.11,0,0,0-1.92.52,1.78,1.78,0,0,0-.68,1.48,1.6,1.6,0,0,0,.74,1.33,8.47,8.47,0,0,0,2.43,1A11.21,11.21,0,0,1,432,458a4.31,4.31,0,0,1,1.5,1.47,3.86,3.86,0,0,1,.48,1.95,3.43,3.43,0,0,1-1.39,2.88,6,6,0,0,1-3.77,1.08,7,7,0,0,1-2.89-.59,4.77,4.77,0,0,1-2-1.61,4,4,0,0,1-.74-2.39h2.52a2.37,2.37,0,0,0,.82,1.92,3.59,3.59,0,0,0,2.34.67,3.08,3.08,0,0,0,2-.53A1.72,1.72,0,0,0,431.49,461.42Z" transform="translate(-72.11 -375.72)"/><path class="cls-1" d="M443.69,457.73l3.33-6.88h2.79L445,460v5.34h-2.53V460l-4.87-9.17h2.8Z" transform="translate(-72.11 -375.72)"/><path class="cls-1" d="M454.12,465.36V450.85h4.28a6.72,6.72,0,0,1,3.41.86,5.83,5.83,0,0,1,2.31,2.43,7.78,7.78,0,0,1,.82,3.61v.72a7.68,7.68,0,0,1-.83,3.63,5.78,5.78,0,0,1-2.34,2.41,7.06,7.06,0,0,1-3.48.85Zm2.52-12.48v10.46h1.64a3.76,3.76,0,0,0,3-1.24,5.4,5.4,0,0,0,1.09-3.56v-.8a5.57,5.57,0,0,0-1-3.61,3.64,3.64,0,0,0-3-1.25Z" transform="translate(-72.11 -375.72)"/><path class="cls-1" d="M474.19,462.2l3.69-11.35h2.77l-5.22,14.51H473l-5.2-14.51h2.76Z" transform="translate(-72.11 -375.72)"/><path class="cls-1" d="M493.49,458.88h-6v4.46h7v2H485V450.85h9.42v2h-6.9v4h6Z" transform="translate(-72.11 -375.72)"/><path class="cls-1" d="M506.86,461.42a1.73,1.73,0,0,0-.67-1.47,8,8,0,0,0-2.43-1.05,11.87,11.87,0,0,1-2.79-1.17,3.73,3.73,0,0,1-2-3.25,3.55,3.55,0,0,1,1.43-2.89,5.76,5.76,0,0,1,3.71-1.14,6.3,6.3,0,0,1,2.7.56,4.39,4.39,0,0,1,1.86,1.59,4,4,0,0,1,.68,2.29h-2.51a2.29,2.29,0,0,0-.71-1.78,3,3,0,0,0-2-.64,3.11,3.11,0,0,0-1.92.52,1.78,1.78,0,0,0-.68,1.48,1.58,1.58,0,0,0,.74,1.33,8.47,8.47,0,0,0,2.43,1A11.21,11.21,0,0,1,507.4,458a4.4,4.4,0,0,1,1.5,1.47,3.86,3.86,0,0,1,.48,1.95,3.43,3.43,0,0,1-1.39,2.88,6,6,0,0,1-3.77,1.08,7,7,0,0,1-2.89-.59,4.8,4.8,0,0,1-2.06-1.61,4.05,4.05,0,0,1-.73-2.39h2.52a2.37,2.37,0,0,0,.82,1.92,3.57,3.57,0,0,0,2.34.67,3.1,3.1,0,0,0,2-.53A1.72,1.72,0,0,0,506.86,461.42Z" transform="translate(-72.11 -375.72)"/><path class="cls-1" d="M523.89,452.88h-4.52v12.48h-2.5V452.88h-4.48v-2h11.5Z" transform="translate(-72.11 -375.72)"/></svg>